<svg width="56" height="56" viewBox="0 0 56 56" fill="none" xmlns="http://www.w3.org/2000/svg">
<g id="Icon">
<g id="Vector">
<path d="M16.3333 18.6667C16.3333 12.2233 21.5567 7 28 7C34.4433 7 39.6667 12.2233 39.6667 18.6667C39.6667 25.11 34.4433 30.3333 28 30.3333C21.5567 30.3333 16.3333 25.11 16.3333 18.6667ZM28 25.6667C31.866 25.6667 35 22.5327 35 18.6667C35 14.8007 31.866 11.6667 28 11.6667C24.134 11.6667 21 14.8007 21 18.6667C21 22.5327 24.134 25.6667 28 25.6667Z" fill="#0F1828"/>
<path d="M14.8007 38.134C11.3 41.6347 9.33334 46.3826 9.33334 51.3333H14C14 47.6203 15.475 44.0593 18.1005 41.4338C20.726 38.8083 24.287 37.3333 28 37.3333C31.713 37.3333 35.274 38.8083 37.8995 41.4338C40.525 44.0593 42 47.6203 42 51.3333H46.6667C46.6667 46.3826 44.7 41.6347 41.1993 38.134C37.6987 34.6333 32.9507 32.6667 28 32.6667C23.0493 32.6667 18.3014 34.6333 14.8007 38.134Z" fill="#0F1828"/>
</g>
</g>
</svg>
